<svg width="188" height="51" viewBox="0 0 188 51" fill="none" xmlns="http://www.w3.org/2000/svg">
<path d="M175.011 16.5518L150.643 14.3717C149.789 14.2953 149.241 15.2586 149.743 15.9535L156.146 24.8123C156.409 25.1767 156.883 25.3205 157.305 25.1638L175.27 18.4852C176.269 18.114 176.072 16.6467 175.011 16.5518Z" fill="url(#paint0_linear_2207_633)"/>
<path d="M175.896 18.3509L164.782 39.8393C164.387 40.6025 163.278 40.5454 162.963 39.7458L158.913 29.4427C158.747 29.0212 158.885 28.5409 159.25 28.2721L174.414 17.0867C175.266 16.4585 176.382 17.4109 175.896 18.3509Z" fill="url(#paint1_linear_2207_633)"/>
<mask id="path-3-outside-1_2207_633" maskUnits="userSpaceOnUse" x="2" y="22" width="149" height="22" fill="black">
<rect fill="white" x="2" y="22" width="149" height="22"/>
<path d="M5.096 22.756V43H2.352V22.756H5.096ZM12.0008 43H9.36884V29.308H11.7488L12.0288 31.408C12.4582 30.624 13.0742 30.0173 13.8768 29.588C14.6982 29.14 15.5942 28.916 16.5648 28.916C18.3195 28.916 19.6355 29.42 20.5128 30.428C21.3902 31.4173 21.8288 32.8173 21.8288 34.628V43H19.1968V35.216C19.1968 32.6213 18.0955 31.324 15.8928 31.324C14.6795 31.324 13.7275 31.7253 13.0368 32.528C12.3462 33.3307 12.0008 34.404 12.0008 35.748V43ZM28.1063 43H25.4743V29.308H27.8543L28.1343 31.408C28.5636 30.624 29.1796 30.0173 29.9823 29.588C30.8036 29.14 31.6996 28.916 32.6703 28.916C34.425 28.916 35.741 29.42 36.6183 30.428C37.4956 31.4173 37.9343 32.8173 37.9343 34.628V43H35.3023V35.216C35.3023 32.6213 34.201 31.324 31.9983 31.324C30.785 31.324 29.833 31.7253 29.1423 32.528C28.4516 33.3307 28.1063 34.404 28.1063 35.748V43ZM42.6998 41.32C41.3558 39.976 40.6838 38.2493 40.6838 36.14C40.6838 34.0307 41.3558 32.304 42.6998 30.96C44.0438 29.616 45.7518 28.944 47.8238 28.944C49.8771 28.944 51.5758 29.616 52.9198 30.96C54.2638 32.304 54.9358 34.0307 54.9358 36.14C54.9358 38.2493 54.2638 39.976 52.9198 41.32C51.5758 42.664 49.8771 43.336 47.8238 43.336C45.7518 43.336 44.0438 42.664 42.6998 41.32ZM44.5758 32.64C43.7544 33.536 43.3438 34.7027 43.3438 36.14C43.3438 37.5773 43.7544 38.744 44.5758 39.64C45.4158 40.536 46.4984 40.984 47.8238 40.984C49.1491 40.984 50.2224 40.536 51.0438 39.64C51.8838 38.7253 52.3038 37.5587 52.3038 36.14C52.3038 34.7213 51.8838 33.564 51.0438 32.668C50.2224 31.7533 49.1491 31.296 47.8238 31.296C46.4984 31.296 45.4158 31.744 44.5758 32.64ZM61.0564 43L55.5404 29.308H58.3404L61.3364 36.952C61.8591 38.3707 62.2231 39.4627 62.4284 40.228C62.5964 39.556 62.9791 38.464 63.5764 36.952L66.6284 29.308H69.3724L63.6604 43H61.0564ZM73.9865 25.556C73.6505 25.892 73.2398 26.06 72.7545 26.06C72.2692 26.06 71.8585 25.892 71.5225 25.556C71.1865 25.2013 71.0185 24.7907 71.0185 24.324C71.0185 23.8387 71.1865 23.428 71.5225 23.092C71.8585 22.756 72.2692 22.588 72.7545 22.588C73.2398 22.588 73.6505 22.756 73.9865 23.092C74.3225 23.428 74.4905 23.8387 74.4905 24.324C74.4905 24.7907 74.3225 25.2013 73.9865 25.556ZM71.4665 43V29.308H74.0985V43H71.4665ZM81.7836 43H79.1516V31.52H76.4636V29.308H79.1516V25.024H81.7836V29.308H84.4716V31.52H81.7836V43ZM97.6819 22.756V40.452H106.586V43H94.9379V22.756H97.6819ZM113.123 43.336C111.667 43.336 110.519 42.9627 109.679 42.216C108.858 41.4507 108.447 40.4427 108.447 39.192C108.447 37.9413 108.886 36.9427 109.763 36.196C110.659 35.4307 111.919 34.9827 113.543 34.852L117.855 34.516V34.124C117.855 32.052 116.782 31.016 114.635 31.016C113.534 31.016 112.675 31.2493 112.059 31.716C111.462 32.1827 111.163 32.8267 111.163 33.648H108.867C108.867 32.2293 109.399 31.0907 110.463 30.232C111.546 29.3547 112.974 28.916 114.747 28.916C116.502 28.916 117.883 29.3827 118.891 30.316C119.918 31.2493 120.431 32.612 120.431 34.404V43H118.191L117.911 40.788C117.556 41.572 116.94 42.1973 116.063 42.664C115.204 43.112 114.224 43.336 113.123 43.336ZM113.879 41.292C115.13 41.292 116.11 40.9187 116.819 40.172C117.528 39.4067 117.883 38.38 117.883 37.092V36.364L114.383 36.644C112.199 36.8493 111.107 37.6707 111.107 39.108C111.107 39.8173 111.35 40.3587 111.835 40.732C112.32 41.1053 113.002 41.292 113.879 41.292ZM126.456 43H124.076V22.392H126.708V31.66C127.156 30.7827 127.809 30.1107 128.668 29.644C129.545 29.1587 130.553 28.916 131.692 28.916C133.615 28.916 135.136 29.5973 136.256 30.96C137.395 32.3227 137.964 34.0773 137.964 36.224C137.964 38.3333 137.376 40.0507 136.2 41.376C135.043 42.6827 133.484 43.336 131.524 43.336C130.423 43.336 129.443 43.0933 128.584 42.608C127.744 42.1227 127.1 41.4227 126.652 40.508L126.456 43ZM126.736 36.112C126.736 37.568 127.119 38.744 127.884 39.64C128.668 40.5173 129.723 40.956 131.048 40.956C132.373 40.956 133.419 40.508 134.184 39.612C134.949 38.716 135.332 37.5493 135.332 36.112C135.332 34.6933 134.949 33.536 134.184 32.64C133.419 31.744 132.373 31.296 131.048 31.296C129.723 31.296 128.668 31.744 127.884 32.64C127.119 33.536 126.736 34.6933 126.736 36.112ZM139.745 39.024H142.265C142.265 39.7147 142.508 40.2653 142.993 40.676C143.497 41.068 144.188 41.264 145.065 41.264C145.98 41.264 146.689 41.0867 147.193 40.732C147.716 40.3773 147.977 39.8827 147.977 39.248C147.977 38.7627 147.837 38.38 147.557 38.1C147.277 37.8013 146.792 37.568 146.101 37.4L143.693 36.84C141.304 36.2613 140.109 34.992 140.109 33.032C140.109 31.7813 140.585 30.7827 141.537 30.036C142.489 29.2893 143.73 28.916 145.261 28.916C146.754 28.916 147.949 29.308 148.845 30.092C149.76 30.8573 150.236 31.8933 150.273 33.2H147.753C147.716 32.5093 147.473 31.968 147.025 31.576C146.577 31.1653 145.961 30.96 145.177 30.96C144.356 30.96 143.721 31.1373 143.273 31.492C142.825 31.828 142.601 32.3133 142.601 32.948C142.601 33.8627 143.273 34.488 144.617 34.824L147.025 35.412C148.22 35.692 149.097 36.1213 149.657 36.7C150.217 37.2787 150.497 38.072 150.497 39.08C150.497 40.368 149.993 41.404 148.985 42.188C147.977 42.9533 146.652 43.336 145.009 43.336C143.404 43.336 142.125 42.944 141.173 42.16C140.221 41.376 139.745 40.3307 139.745 39.024Z"/>
</mask>
<path d="M5.096 22.756V43H2.352V22.756H5.096ZM12.0008 43H9.36884V29.308H11.7488L12.0288 31.408C12.4582 30.624 13.0742 30.0173 13.8768 29.588C14.6982 29.14 15.5942 28.916 16.5648 28.916C18.3195 28.916 19.6355 29.42 20.5128 30.428C21.3902 31.4173 21.8288 32.8173 21.8288 34.628V43H19.1968V35.216C19.1968 32.6213 18.0955 31.324 15.8928 31.324C14.6795 31.324 13.7275 31.7253 13.0368 32.528C12.3462 33.3307 12.0008 34.404 12.0008 35.748V43ZM28.1063 43H25.4743V29.308H27.8543L28.1343 31.408C28.5636 30.624 29.1796 30.0173 29.9823 29.588C30.8036 29.14 31.6996 28.916 32.6703 28.916C34.425 28.916 35.741 29.42 36.6183 30.428C37.4956 31.4173 37.9343 32.8173 37.9343 34.628V43H35.3023V35.216C35.3023 32.6213 34.201 31.324 31.9983 31.324C30.785 31.324 29.833 31.7253 29.1423 32.528C28.4516 33.3307 28.1063 34.404 28.1063 35.748V43ZM42.6998 41.32C41.3558 39.976 40.6838 38.2493 40.6838 36.14C40.6838 34.0307 41.3558 32.304 42.6998 30.96C44.0438 29.616 45.7518 28.944 47.8238 28.944C49.8771 28.944 51.5758 29.616 52.9198 30.96C54.2638 32.304 54.9358 34.0307 54.9358 36.14C54.9358 38.2493 54.2638 39.976 52.9198 41.32C51.5758 42.664 49.8771 43.336 47.8238 43.336C45.7518 43.336 44.0438 42.664 42.6998 41.32ZM44.5758 32.64C43.7544 33.536 43.3438 34.7027 43.3438 36.14C43.3438 37.5773 43.7544 38.744 44.5758 39.64C45.4158 40.536 46.4984 40.984 47.8238 40.984C49.1491 40.984 50.2224 40.536 51.0438 39.64C51.8838 38.7253 52.3038 37.5587 52.3038 36.14C52.3038 34.7213 51.8838 33.564 51.0438 32.668C50.2224 31.7533 49.1491 31.296 47.8238 31.296C46.4984 31.296 45.4158 31.744 44.5758 32.64ZM61.0564 43L55.5404 29.308H58.3404L61.3364 36.952C61.8591 38.3707 62.2231 39.4627 62.4284 40.228C62.5964 39.556 62.9791 38.464 63.5764 36.952L66.6284 29.308H69.3724L63.6604 43H61.0564ZM73.9865 25.556C73.6505 25.892 73.2398 26.06 72.7545 26.06C72.2692 26.06 71.8585 25.892 71.5225 25.556C71.1865 25.2013 71.0185 24.7907 71.0185 24.324C71.0185 23.8387 71.1865 23.428 71.5225 23.092C71.8585 22.756 72.2692 22.588 72.7545 22.588C73.2398 22.588 73.6505 22.756 73.9865 23.092C74.3225 23.428 74.4905 23.8387 74.4905 24.324C74.4905 24.7907 74.3225 25.2013 73.9865 25.556ZM71.4665 43V29.308H74.0985V43H71.4665ZM81.7836 43H79.1516V31.52H76.4636V29.308H79.1516V25.024H81.7836V29.308H84.4716V31.52H81.7836V43ZM97.6819 22.756V40.452H106.586V43H94.9379V22.756H97.6819ZM113.123 43.336C111.667 43.336 110.519 42.9627 109.679 42.216C108.858 41.4507 108.447 40.4427 108.447 39.192C108.447 37.9413 108.886 36.9427 109.763 36.196C110.659 35.4307 111.919 34.9827 113.543 34.852L117.855 34.516V34.124C117.855 32.052 116.782 31.016 114.635 31.016C113.534 31.016 112.675 31.2493 112.059 31.716C111.462 32.1827 111.163 32.8267 111.163 33.648H108.867C108.867 32.2293 109.399 31.0907 110.463 30.232C111.546 29.3547 112.974 28.916 114.747 28.916C116.502 28.916 117.883 29.3827 118.891 30.316C119.918 31.2493 120.431 32.612 120.431 34.404V43H118.191L117.911 40.788C117.556 41.572 116.94 42.1973 116.063 42.664C115.204 43.112 114.224 43.336 113.123 43.336ZM113.879 41.292C115.13 41.292 116.11 40.9187 116.819 40.172C117.528 39.4067 117.883 38.38 117.883 37.092V36.364L114.383 36.644C112.199 36.8493 111.107 37.6707 111.107 39.108C111.107 39.8173 111.35 40.3587 111.835 40.732C112.32 41.1053 113.002 41.292 113.879 41.292ZM126.456 43H124.076V22.392H126.708V31.66C127.156 30.7827 127.809 30.1107 128.668 29.644C129.545 29.1587 130.553 28.916 131.692 28.916C133.615 28.916 135.136 29.5973 136.256 30.96C137.395 32.3227 137.964 34.0773 137.964 36.224C137.964 38.3333 137.376 40.0507 136.2 41.376C135.043 42.6827 133.484 43.336 131.524 43.336C130.423 43.336 129.443 43.0933 128.584 42.608C127.744 42.1227 127.1 41.4227 126.652 40.508L126.456 43ZM126.736 36.112C126.736 37.568 127.119 38.744 127.884 39.64C128.668 40.5173 129.723 40.956 131.048 40.956C132.373 40.956 133.419 40.508 134.184 39.612C134.949 38.716 135.332 37.5493 135.332 36.112C135.332 34.6933 134.949 33.536 134.184 32.64C133.419 31.744 132.373 31.296 131.048 31.296C129.723 31.296 128.668 31.744 127.884 32.64C127.119 33.536 126.736 34.6933 126.736 36.112ZM139.745 39.024H142.265C142.265 39.7147 142.508 40.2653 142.993 40.676C143.497 41.068 144.188 41.264 145.065 41.264C145.98 41.264 146.689 41.0867 147.193 40.732C147.716 40.3773 147.977 39.8827 147.977 39.248C147.977 38.7627 147.837 38.38 147.557 38.1C147.277 37.8013 146.792 37.568 146.101 37.4L143.693 36.84C141.304 36.2613 140.109 34.992 140.109 33.032C140.109 31.7813 140.585 30.7827 141.537 30.036C142.489 29.2893 143.73 28.916 145.261 28.916C146.754 28.916 147.949 29.308 148.845 30.092C149.76 30.8573 150.236 31.8933 150.273 33.2H147.753C147.716 32.5093 147.473 31.968 147.025 31.576C146.577 31.1653 145.961 30.96 145.177 30.96C144.356 30.96 143.721 31.1373 143.273 31.492C142.825 31.828 142.601 32.3133 142.601 32.948C142.601 33.8627 143.273 34.488 144.617 34.824L147.025 35.412C148.22 35.692 149.097 36.1213 149.657 36.7C150.217 37.2787 150.497 38.072 150.497 39.08C150.497 40.368 149.993 41.404 148.985 42.188C147.977 42.9533 146.652 43.336 145.009 43.336C143.404 43.336 142.125 42.944 141.173 42.16C140.221 41.376 139.745 40.3307 139.745 39.024Z" fill="white"/>
<path d="M5.096 22.756H5.296V22.556H5.096V22.756ZM5.096 43V43.2H5.296V43H5.096ZM2.352 43H2.152V43.2H2.352V43ZM2.352 22.756V22.556H2.152V22.756H2.352ZM4.896 22.756V43H5.296V22.756H4.896ZM5.096 42.8H2.352V43.2H5.096V42.8ZM2.552 43V22.756H2.152V43H2.552ZM2.352 22.956H5.096V22.556H2.352V22.956ZM12.0008 43V43.2H12.2008V43H12.0008ZM9.36884 43H9.16884V43.2H9.36884V43ZM9.36884 29.308V29.108H9.16884V29.308H9.36884ZM11.7488 29.308L11.9471 29.2816L11.9239 29.108H11.7488V29.308ZM12.0288 31.408L11.8306 31.4344L11.9112 32.0392L12.2043 31.5041L12.0288 31.408ZM13.8768 29.588L13.9712 29.7644L13.9726 29.7636L13.8768 29.588ZM20.5128 30.428L20.362 30.5593L20.3632 30.5607L20.5128 30.428ZM21.8288 43V43.2H22.0288V43H21.8288ZM19.1968 43H18.9968V43.2H19.1968V43ZM13.0368 32.528L13.1884 32.6584L13.0368 32.528ZM12.0008 42.8H9.36884V43.2H12.0008V42.8ZM9.56884 43V29.308H9.16884V43H9.56884ZM9.36884 29.508H11.7488V29.108H9.36884V29.508ZM11.5506 29.3344L11.8306 31.4344L12.2271 31.3816L11.9471 29.2816L11.5506 29.3344ZM12.2043 31.5041C12.6146 30.7548 13.2021 30.1757 13.9712 29.7644L13.7825 29.4116C12.9463 29.8589 12.3018 30.4932 11.8534 31.3119L12.2043 31.5041ZM13.9726 29.7636C14.7634 29.3322 15.6263 29.116 16.5648 29.116V28.716C15.562 28.716 14.6329 28.9478 13.7811 29.4124L13.9726 29.7636ZM16.5648 29.116C18.2809 29.116 19.5337 29.6076 20.362 30.5593L20.6637 30.2967C19.7374 29.2324 18.3581 28.716 16.5648 28.716V29.116ZM20.3632 30.5607C21.1978 31.5018 21.6288 32.8481 21.6288 34.628H22.0288C22.0288 32.7866 21.5826 31.3328 20.6625 30.2953L20.3632 30.5607ZM21.6288 34.628V43H22.0288V34.628H21.6288ZM21.8288 42.8H19.1968V43.2H21.8288V42.8ZM19.3968 43V35.216H18.9968V43H19.3968ZM19.3968 35.216C19.3968 33.8951 19.1172 32.8671 18.5233 32.1676C17.9241 31.4617 17.0344 31.124 15.8928 31.124V31.524C16.954 31.524 17.7163 31.835 18.2184 32.4264C18.7258 33.0242 18.9968 33.9422 18.9968 35.216H19.3968ZM15.8928 31.124C14.6307 31.124 13.6197 31.544 12.8852 32.3976L13.1884 32.6584C13.8354 31.9066 14.7283 31.524 15.8928 31.524V31.124ZM12.8852 32.3976C12.1557 33.2454 11.8008 34.3694 11.8008 35.748H12.2008C12.2008 34.4386 12.5367 33.4159 13.1884 32.6584L12.8852 32.3976ZM11.8008 35.748V43H12.2008V35.748H11.8008ZM28.1063 43V43.2H28.3063V43H28.1063ZM25.4743 43H25.2743V43.2H25.4743V43ZM25.4743 29.308V29.108H25.2743V29.308H25.4743ZM27.8543 29.308L28.0526 29.2816L28.0294 29.108H27.8543V29.308ZM28.1343 31.408L27.9361 31.4344L28.0167 32.0392L28.3097 31.5041L28.1343 31.408ZM29.9823 29.588L30.0766 29.7644L30.0781 29.7636L29.9823 29.588ZM36.6183 30.428L36.4674 30.5593L36.4687 30.5607L36.6183 30.428ZM37.9343 43V43.2H38.1343V43H37.9343ZM35.3023 43H35.1023V43.2H35.3023V43ZM29.1423 32.528L29.2939 32.6584L29.1423 32.528ZM28.1063 42.8H25.4743V43.2H28.1063V42.8ZM25.6743 43V29.308H25.2743V43H25.6743ZM25.4743 29.508H27.8543V29.108H25.4743V29.508ZM27.6561 29.3344L27.9361 31.4344L28.3326 31.3816L28.0526 29.2816L27.6561 29.3344ZM28.3097 31.5041C28.72 30.7548 29.3076 30.1757 30.0766 29.7644L29.888 29.4116C29.0517 29.8589 28.4072 30.4932 27.9589 31.3119L28.3097 31.5041ZM30.0781 29.7636C30.8689 29.3322 31.7318 29.116 32.6703 29.116V28.716C31.6675 28.716 30.7384 28.9478 29.8865 29.4124L30.0781 29.7636ZM32.6703 29.116C34.3864 29.116 35.6391 29.6076 36.4675 30.5593L36.7692 30.2967C35.8428 29.2324 34.4636 28.716 32.6703 28.716V29.116ZM36.4687 30.5607C37.3033 31.5018 37.7343 32.8481 37.7343 34.628H38.1343C38.1343 32.7866 37.688 31.3328 36.768 30.2953L36.4687 30.5607ZM37.7343 34.628V43H38.1343V34.628H37.7343ZM37.9343 42.8H35.3023V43.2H37.9343V42.8ZM35.5023 43V35.216H35.1023V43H35.5023ZM35.5023 35.216C35.5023 33.8951 35.2227 32.8671 34.6288 32.1676C34.0296 31.4617 33.1398 31.124 31.9983 31.124V31.524C33.0595 31.524 33.8217 31.835 34.3238 32.4264C34.8313 33.0242 35.1023 33.9422 35.1023 35.216H35.5023ZM31.9983 31.124C30.7362 31.124 29.7251 31.544 28.9907 32.3976L29.2939 32.6584C29.9408 31.9066 30.8338 31.524 31.9983 31.524V31.124ZM28.9907 32.3976C28.2611 33.2454 27.9063 34.3694 27.9063 35.748H28.3063C28.3063 34.4386 28.6421 33.4159 29.2939 32.6584L28.9907 32.3976ZM27.9063 35.748V43H28.3063V35.748H27.9063ZM42.6998 41.32L42.8412 41.1786L42.6998 41.32ZM42.6998 30.96L42.8412 31.1014L42.6998 30.96ZM52.9198 30.96L52.7784 31.1014L52.9198 30.96ZM52.9198 41.32L52.7784 41.1786L52.9198 41.32ZM44.5758 32.64L44.4299 32.5032L44.4284 32.5049L44.5758 32.64ZM44.5758 39.64L44.4283 39.7752L44.4299 39.7768L44.5758 39.64ZM51.0438 39.64L50.8965 39.5047L50.8964 39.5049L51.0438 39.64ZM51.0438 32.668L50.8949 32.8017L50.8979 32.8048L51.0438 32.668ZM42.8412 41.1786C41.539 39.8764 40.8838 38.2027 40.8838 36.14H40.4838C40.4838 38.296 41.1726 40.0756 42.5584 41.4614L42.8412 41.1786ZM40.8838 36.14C40.8838 34.0773 41.539 32.4036 42.8412 31.1014L42.5584 30.8186C41.1726 32.2044 40.4838 33.984 40.4838 36.14H40.8838ZM42.8412 31.1014C44.1441 29.7985 45.7996 29.144 47.8238 29.144V28.744C45.704 28.744 43.9434 29.4335 42.5584 30.8186L42.8412 31.1014ZM47.8238 29.144C49.8288 29.144 51.4751 29.7981 52.7784 31.1014L53.0612 30.8186C51.6765 29.4339 49.9255 28.744 47.8238 28.744V29.144ZM52.7784 31.1014C54.0806 32.4036 54.7358 34.0773 54.7358 36.14H55.1358C55.1358 33.984 54.447 32.2044 53.0612 30.8186L52.7784 31.1014ZM54.7358 36.14C54.7358 38.2027 54.0806 39.8764 52.7784 41.1786L53.0612 41.4614C54.447 40.0756 55.1358 38.296 55.1358 36.14H54.7358ZM52.7784 41.1786C51.4751 42.4819 49.8288 43.136 47.8238 43.136V43.536C49.9255 43.536 51.6765 42.8461 53.0612 41.4614L52.7784 41.1786ZM47.8238 43.136C45.7996 43.136 44.1441 42.4815 42.8412 41.1786L42.5584 41.4614C43.9434 42.8465 45.704 43.536 47.8238 43.536V43.136ZM44.4284 32.5049C43.5672 33.4443 43.1438 34.6623 43.1438 36.14H43.5438C43.5438 34.743 43.9417 33.6277 44.7232 32.7751L44.4284 32.5049ZM43.1438 36.14C43.1438 37.6177 43.5672 38.8357 44.4284 39.7751L44.7232 39.5049C43.9417 38.6523 43.5438 37.537 43.5438 36.14H43.1438ZM44.4299 39.7768C45.3109 40.7165 46.448 41.184 47.8238 41.184V40.784C46.5488 40.784 45.5207 40.3555 44.7217 39.5032L44.4299 39.7768ZM47.8238 41.184C49.1995 41.184 50.3283 40.7165 51.1912 39.7751L50.8964 39.5049C50.1166 40.3555 49.0987 40.784 47.8238 40.784V41.184ZM51.1911 39.7753C52.0698 38.8184 52.5038 37.6011 52.5038 36.14H52.1038C52.1038 37.5162 51.6977 38.6322 50.8965 39.5047L51.1911 39.7753ZM52.5038 36.14C52.5038 34.679 52.0698 33.47 51.1897 32.5312L50.8979 32.8048C51.6977 33.658 52.1038 34.7637 52.1038 36.14H52.5038ZM51.1926 32.5344C50.3301 31.5739 49.2009 31.096 47.8238 31.096V31.496C49.0973 31.496 50.1148 31.9328 50.895 32.8016L51.1926 32.5344ZM47.8238 31.096C46.448 31.096 45.3109 31.5635 44.4299 32.5032L44.7217 32.7768C45.5207 31.9245 46.5488 31.496 47.8238 31.496V31.096ZM61.0564 43L60.8709 43.0747L60.9214 43.2H61.0564V43ZM55.5404 29.308V29.108H55.2442L55.3549 29.3827L55.5404 29.308ZM58.3404 29.308L58.5266 29.235L58.4768 29.108H58.3404V29.308ZM61.3364 36.952L61.5241 36.8828L61.5226 36.879L61.3364 36.952ZM62.4284 40.228L62.2352 40.2798L62.4352 41.0253L62.6224 40.2765L62.4284 40.228ZM63.5764 36.952L63.3907 36.8778L63.3904 36.8785L63.5764 36.952ZM66.6284 29.308V29.108H66.4929L66.4427 29.2338L66.6284 29.308ZM69.3724 29.308L69.557 29.385L69.6725 29.108H69.3724V29.308ZM63.6604 43V43.2H63.7937L63.845 43.077L63.6604 43ZM61.2419 42.9253L55.7259 29.2333L55.3549 29.3827L60.8709 43.0747L61.2419 42.9253ZM55.5404 29.508H58.3404V29.108H55.5404V29.508ZM58.1542 29.381L61.1502 37.025L61.5226 36.879L58.5266 29.235L58.1542 29.381ZM61.1487 37.0211C61.6708 38.4382 62.0323 39.5234 62.2352 40.2798L62.6216 40.1762C62.4138 39.4019 62.0473 38.3031 61.5241 36.8829L61.1487 37.0211ZM62.6224 40.2765C62.7869 39.6185 63.1652 38.5372 63.7624 37.0255L63.3904 36.8785C62.793 38.3908 62.4059 39.4935 62.2344 40.1795L62.6224 40.2765ZM63.7621 37.0262L66.8141 29.3822L66.4427 29.2338L63.3907 36.8778L63.7621 37.0262ZM66.6284 29.508H69.3724V29.108H66.6284V29.508ZM69.1878 29.231L63.4758 42.923L63.845 43.077L69.557 29.385L69.1878 29.231ZM63.6604 42.8H61.0564V43.2H63.6604V42.8ZM73.9865 25.556L74.128 25.6975L74.1317 25.6935L73.9865 25.556ZM71.5225 25.556L71.3773 25.6936L71.3811 25.6974L71.5225 25.556ZM71.5225 23.092L71.3811 22.9506L71.5225 23.092ZM71.4665 43H71.2665V43.2H71.4665V43ZM71.4665 29.308V29.108H71.2665V29.308H71.4665ZM74.0985 29.308H74.2985V29.108H74.0985V29.308ZM74.0985 43V43.2H74.2985V43H74.0985ZM73.8451 25.4146C73.5475 25.7122 73.1881 25.86 72.7545 25.86V26.26C73.2916 26.26 73.7535 26.0718 74.1279 25.6974L73.8451 25.4146ZM72.7545 25.86C72.3209 25.86 71.9615 25.7122 71.6639 25.4146L71.3811 25.6974C71.7555 26.0718 72.2174 26.26 72.7545 26.26V25.86ZM71.6677 25.4185C71.3651 25.099 71.2185 24.7369 71.2185 24.324H70.8185C70.8185 24.8444 71.0079 25.3037 71.3773 25.6935L71.6677 25.4185ZM71.2185 24.324C71.2185 23.8904 71.3663 23.531 71.6639 23.2334L71.3811 22.9506C71.0067 23.325 70.8185 23.7869 70.8185 24.324H71.2185ZM71.6639 23.2334C71.9615 22.9358 72.3209 22.788 72.7545 22.788V22.388C72.2174 22.388 71.7555 22.5762 71.3811 22.9506L71.6639 23.2334ZM72.7545 22.788C73.1881 22.788 73.5475 22.9358 73.8451 23.2334L74.1279 22.9506C73.7535 22.5762 73.2916 22.388 72.7545 22.388V22.788ZM73.8451 23.2334C74.1427 23.531 74.2905 23.8904 74.2905 24.324H74.6905C74.6905 23.7869 74.5023 23.325 74.1279 22.9506L73.8451 23.2334ZM74.2905 24.324C74.2905 24.7369 74.1439 25.099 73.8413 25.4185L74.1317 25.6935C74.5011 25.3037 74.6905 24.8444 74.6905 24.324H74.2905ZM71.6665 43V29.308H71.2665V43H71.6665ZM71.4665 29.508H74.0985V29.108H71.4665V29.508ZM73.8985 29.308V43H74.2985V29.308H73.8985ZM74.0985 42.8H71.4665V43.2H74.0985V42.8ZM81.7836 43V43.2H81.9836V43H81.7836ZM79.1516 43H78.9516V43.2H79.1516V43ZM79.1516 31.52H79.3516V31.32H79.1516V31.52ZM76.4636 31.52H76.2636V31.72H76.4636V31.52ZM76.4636 29.308V29.108H76.2636V29.308H76.4636ZM79.1516 29.308V29.508H79.3516V29.308H79.1516ZM79.1516 25.024V24.824H78.9516V25.024H79.1516ZM81.7836 25.024H81.9836V24.824H81.7836V25.024ZM81.7836 29.308H81.5836V29.508H81.7836V29.308ZM84.4716 29.308H84.6716V29.108H84.4716V29.308ZM84.4716 31.52V31.72H84.6716V31.52H84.4716ZM81.7836 31.52V31.32H81.5836V31.52H81.7836ZM81.7836 42.8H79.1516V43.2H81.7836V42.8ZM79.3516 43V31.52H78.9516V43H79.3516ZM79.1516 31.32H76.4636V31.72H79.1516V31.32ZM76.6636 31.52V29.308H76.2636V31.52H76.6636ZM76.4636 29.508H79.1516V29.108H76.4636V29.508ZM79.3516 29.308V25.024H78.9516V29.308H79.3516ZM79.1516 25.224H81.7836V24.824H79.1516V25.224ZM81.5836 25.024V29.308H81.9836V25.024H81.5836ZM81.7836 29.508H84.4716V29.108H81.7836V29.508ZM84.2716 29.308V31.52H84.6716V29.308H84.2716ZM84.4716 31.32H81.7836V31.72H84.4716V31.32ZM81.5836 31.52V43H81.9836V31.52H81.5836ZM97.6819 22.756H97.8819V22.556H97.6819V22.756ZM97.6819 40.452H97.4819V40.652H97.6819V40.452ZM106.586 40.452H106.786V40.252H106.586V40.452ZM106.586 43V43.2H106.786V43H106.586ZM94.9379 43H94.7379V43.2H94.9379V43ZM94.9379 22.756V22.556H94.7379V22.756H94.9379ZM97.4819 22.756V40.452H97.8819V22.756H97.4819ZM97.6819 40.652H106.586V40.252H97.6819V40.652ZM106.386 40.452V43H106.786V40.452H106.386ZM106.586 42.8H94.9379V43.2H106.586V42.8ZM95.1379 43V22.756H94.7379V43H95.1379ZM94.9379 22.956H97.6819V22.556H94.9379V22.956ZM109.679 42.216L109.542 42.3624L109.546 42.3655L109.679 42.216ZM109.763 36.196L109.892 36.3483L109.893 36.3481L109.763 36.196ZM113.543 34.852L113.527 34.6526L113.527 34.6526L113.543 34.852ZM117.855 34.516L117.87 34.7154L118.055 34.701V34.516H117.855ZM112.059 31.716L111.938 31.5566L111.936 31.5584L112.059 31.716ZM111.163 33.648V33.848H111.363V33.648H111.163ZM108.867 33.648H108.667V33.848H108.867V33.648ZM110.463 30.232L110.588 30.3876L110.589 30.3874L110.463 30.232ZM118.891 30.316L118.755 30.4628L118.756 30.464L118.891 30.316ZM120.431 43V43.2H120.631V43H120.431ZM118.191 43L117.992 43.0251L118.015 43.2H118.191V43ZM117.911 40.788L118.109 40.7629L118.02 40.0606L117.729 40.7056L117.911 40.788ZM116.063 42.664L116.155 42.8413L116.157 42.8406L116.063 42.664ZM116.819 40.172L116.964 40.3098L116.966 40.308L116.819 40.172ZM117.883 36.364H118.083V36.1474L117.867 36.1646L117.883 36.364ZM114.383 36.644L114.367 36.4446L114.364 36.4449L114.383 36.644ZM111.835 40.732L111.713 40.8905L111.835 40.732ZM113.123 43.136C111.701 43.136 110.605 42.772 109.812 42.0665L109.546 42.3655C110.432 43.1534 111.633 43.536 113.123 43.536V43.136ZM109.815 42.0697C109.039 41.3467 108.647 40.3942 108.647 39.192H108.247C108.247 40.4912 108.676 41.5546 109.542 42.3623L109.815 42.0697ZM108.647 39.192C108.647 37.9943 109.064 37.0534 109.892 36.3483L109.633 36.0437C108.707 36.8319 108.247 37.8884 108.247 39.192H108.647ZM109.893 36.3481C110.747 35.6188 111.961 35.1799 113.559 35.0514L113.527 34.6526C111.877 34.7854 110.571 35.2425 109.633 36.0439L109.893 36.3481ZM113.558 35.0514L117.87 34.7154L117.839 34.3166L113.527 34.6526L113.558 35.0514ZM118.055 34.516V34.124H117.655V34.516H118.055ZM118.055 34.124C118.055 33.0553 117.778 32.2175 117.189 31.6491C116.601 31.0819 115.737 30.816 114.635 30.816V31.216C115.679 31.216 116.425 31.4681 116.911 31.9369C117.395 32.4045 117.655 33.1207 117.655 34.124H118.055ZM114.635 30.816C113.508 30.816 112.601 31.0545 111.938 31.5566L112.18 31.8754C112.749 31.4442 113.559 31.216 114.635 31.216V30.816ZM111.936 31.5584C111.285 32.0665 110.963 32.771 110.963 33.648H111.363C111.363 32.8823 111.638 32.2989 112.182 31.8736L111.936 31.5584ZM111.163 33.448H108.867V33.848H111.163V33.448ZM109.067 33.648C109.067 32.2872 109.574 31.2067 110.588 30.3876L110.337 30.0764C109.224 30.9746 108.667 32.1715 108.667 33.648H109.067ZM110.589 30.3874C111.627 29.546 113.007 29.116 114.747 29.116V28.716C112.94 28.716 111.464 29.1633 110.337 30.0766L110.589 30.3874ZM114.747 29.116C116.466 29.116 117.793 29.5724 118.755 30.4628L119.027 30.1692C117.972 29.193 116.537 28.716 114.747 28.716V29.116ZM118.756 30.464C119.73 31.3491 120.231 32.6509 120.231 34.404H120.631C120.631 32.5731 120.105 31.1496 119.025 30.168L118.756 30.464ZM120.231 34.404V43H120.631V34.404H120.231ZM120.431 42.8H118.191V43.2H120.431V42.8ZM118.389 42.9749L118.109 40.7629L117.712 40.8131L117.992 43.0251L118.389 42.9749ZM117.729 40.7056C117.395 41.4432 116.814 42.0382 115.969 42.4874L116.157 42.8406C117.067 42.3565 117.717 41.7008 118.093 40.8704L117.729 40.7056ZM115.97 42.4867C115.144 42.9178 114.196 43.136 113.123 43.136V43.536C114.252 43.536 115.264 43.3062 116.155 42.8413L115.97 42.4867ZM113.879 41.492C115.172 41.492 116.209 41.1045 116.964 40.3097L116.674 40.0343C116.01 40.7329 115.087 41.092 113.879 41.092V41.492ZM116.966 40.308C117.717 39.4975 118.083 38.418 118.083 37.092H117.683C117.683 38.342 117.34 39.3159 116.672 40.036L116.966 40.308ZM118.083 37.092V36.364H117.683V37.092H118.083ZM117.867 36.1646L114.367 36.4446L114.399 36.8434L117.899 36.5634L117.867 36.1646ZM114.364 36.4449C113.256 36.5491 112.394 36.8116 111.806 37.2542C111.206 37.7048 110.907 38.3303 110.907 39.108H111.307C111.307 38.4484 111.553 37.9445 112.046 37.5738C112.55 37.195 113.326 36.9442 114.402 36.8431L114.364 36.4449ZM110.907 39.108C110.907 39.8683 111.17 40.473 111.713 40.8905L111.957 40.5735C111.529 40.2443 111.307 39.7664 111.307 39.108H110.907ZM111.713 40.8905C112.245 41.3002 112.976 41.492 113.879 41.492V41.092C113.027 41.092 112.395 40.9105 111.957 40.5735L111.713 40.8905ZM126.456 43V43.2H126.641L126.655 43.0157L126.456 43ZM124.076 43H123.876V43.2H124.076V43ZM124.076 22.392V22.192H123.876V22.392H124.076ZM126.708 22.392H126.908V22.192H126.708V22.392ZM126.708 31.66H126.508L126.886 31.751L126.708 31.66ZM128.668 29.644L128.763 29.8197L128.765 29.819L128.668 29.644ZM136.256 30.96L136.101 31.087L136.102 31.0882L136.256 30.96ZM136.2 41.376L136.05 41.2433L136.05 41.2434L136.2 41.376ZM128.584 42.608L128.484 42.7812L128.485 42.7821L128.584 42.608ZM126.652 40.508L126.831 40.42L126.51 39.7633L126.452 40.4923L126.652 40.508ZM127.884 39.64L127.732 39.7699L127.735 39.7733L127.884 39.64ZM134.184 39.612L134.336 39.7419L134.184 39.612ZM134.184 32.64L134.032 32.7699L134.184 32.64ZM127.884 32.64L127.733 32.5083L127.732 32.5101L127.884 32.64ZM126.456 42.8H124.076V43.2H126.456V42.8ZM124.276 43V22.392H123.876V43H124.276ZM124.076 22.592H126.708V22.192H124.076V22.592ZM126.508 22.392V31.66H126.908V22.392H126.508ZM126.886 31.751C127.316 30.9093 127.94 30.267 128.763 29.8197L128.572 29.4683C127.678 29.9544 126.996 30.6561 126.53 31.569L126.886 31.751ZM128.765 29.819C129.609 29.3522 130.582 29.116 131.692 29.116V28.716C130.524 28.716 129.482 28.9651 128.571 29.469L128.765 29.819ZM131.692 29.116C133.561 29.116 135.023 29.7751 136.101 31.087L136.41 30.833C135.249 29.4196 133.668 28.716 131.692 28.716V29.116ZM136.102 31.0882C137.205 32.4078 137.764 34.114 137.764 36.224H138.164C138.164 34.0406 137.584 32.2375 136.409 30.8318L136.102 31.0882ZM137.764 36.224C137.764 38.2942 137.188 39.9613 136.05 41.2433L136.349 41.5087C137.564 40.1401 138.164 38.3724 138.164 36.224H137.764ZM136.05 41.2434C134.936 42.5017 133.434 43.136 131.524 43.136V43.536C133.533 43.536 135.149 42.8637 136.35 41.5086L136.05 41.2434ZM131.524 43.136C130.453 43.136 129.508 42.9003 128.682 42.4339L128.485 42.7821C129.378 43.2863 130.392 43.536 131.524 43.536V43.136ZM128.684 42.4348C127.88 41.9704 127.263 41.3009 126.831 40.42L126.472 40.596C126.937 41.5444 127.608 42.2749 128.484 42.7812L128.684 42.4348ZM126.452 40.4923L126.256 42.9843L126.655 43.0157L126.851 40.5237L126.452 40.4923ZM126.536 36.112C126.536 37.604 126.929 38.8297 127.732 39.7699L128.036 39.5101C127.308 38.6583 126.936 37.532 126.936 36.112H126.536ZM127.735 39.7733C128.562 40.6987 129.674 41.156 131.048 41.156V40.756C129.771 40.756 128.774 40.336 128.033 39.5067L127.735 39.7733ZM131.048 41.156C132.424 41.156 133.528 40.6882 134.336 39.7419L134.032 39.4821C133.309 40.3278 132.323 40.756 131.048 40.756V41.156ZM134.336 39.7419C135.139 38.8022 135.532 37.5861 135.532 36.112H135.132C135.132 37.5126 134.76 38.6298 134.032 39.4821L134.336 39.7419ZM135.532 36.112C135.532 34.6559 135.138 33.4493 134.336 32.5101L134.032 32.7699C134.76 33.6227 135.132 34.7308 135.132 36.112H135.532ZM134.336 32.5101C133.528 31.5638 132.424 31.096 131.048 31.096V31.496C132.323 31.496 133.309 31.9242 134.032 32.7699L134.336 32.5101ZM131.048 31.096C129.672 31.096 128.56 31.5637 127.733 32.5083L128.034 32.7717C128.776 31.9243 129.773 31.496 131.048 31.496V31.096ZM127.732 32.5101C126.93 33.4493 126.536 34.6559 126.536 36.112H126.936C126.936 34.7308 127.308 33.6227 128.036 32.7699L127.732 32.5101ZM139.745 39.024V38.824H139.545V39.024H139.745ZM142.265 39.024H142.465V38.824H142.265V39.024ZM142.993 40.676L142.864 40.8288L142.87 40.8339L142.993 40.676ZM147.193 40.732L147.081 40.5665L147.078 40.5684L147.193 40.732ZM147.557 38.1L147.411 38.2369L147.416 38.2414L147.557 38.1ZM146.101 37.4L146.148 37.2057L146.146 37.2052L146.101 37.4ZM143.693 36.84L143.646 37.0344L143.648 37.0348L143.693 36.84ZM141.537 30.036L141.414 29.8786L141.537 30.036ZM148.845 30.092L148.713 30.2426L148.717 30.2454L148.845 30.092ZM150.273 33.2V33.4H150.479L150.473 33.1943L150.273 33.2ZM147.753 33.2L147.553 33.2108L147.563 33.4H147.753V33.2ZM147.025 31.576L146.89 31.7235L146.893 31.7265L147.025 31.576ZM143.273 31.492L143.393 31.6521L143.397 31.6488L143.273 31.492ZM144.617 34.824L144.568 35.018L144.569 35.0183L144.617 34.824ZM147.025 35.412L146.977 35.6063L146.979 35.6067L147.025 35.412ZM148.985 42.188L149.106 42.3473L149.108 42.3459L148.985 42.188ZM141.173 42.16L141.046 42.3144L141.173 42.16ZM139.745 39.224H142.265V38.824H139.745V39.224ZM142.065 39.024C142.065 39.7677 142.329 40.3764 142.864 40.8287L143.122 40.5233C142.686 40.1542 142.465 39.6616 142.465 39.024H142.065ZM142.87 40.8339C143.42 41.2618 144.16 41.464 145.065 41.464V41.064C144.216 41.064 143.574 40.8742 143.116 40.5181L142.87 40.8339ZM145.065 41.464C146.002 41.464 146.758 41.2829 147.308 40.8956L147.078 40.5684C146.62 40.8904 145.957 41.064 145.065 41.064V41.464ZM147.305 40.8975C147.883 40.5054 148.177 39.9486 148.177 39.248H147.777C147.777 39.8168 147.548 40.2493 147.081 40.5665L147.305 40.8975ZM148.177 39.248C148.177 38.7223 148.024 38.2842 147.698 37.9586L147.416 38.2414C147.65 38.4758 147.777 38.803 147.777 39.248H148.177ZM147.703 37.9632C147.383 37.6221 146.852 37.3769 146.148 37.2057L146.054 37.5943C146.731 37.7591 147.171 37.9805 147.411 38.2368L147.703 37.9632ZM146.146 37.2052L143.738 36.6452L143.648 37.0348L146.056 37.5948L146.146 37.2052ZM143.74 36.6456C142.568 36.3618 141.712 35.914 141.151 35.3169C140.593 34.7241 140.309 33.9679 140.309 33.032H139.909C139.909 34.0561 140.223 34.9146 140.859 35.5911C141.492 36.2634 142.428 36.7395 143.646 37.0344L143.74 36.6456ZM140.309 33.032C140.309 31.8404 140.759 30.9007 141.66 30.1934L141.414 29.8786C140.411 30.6647 139.909 31.7223 139.909 33.032H140.309ZM141.66 30.1934C142.569 29.4809 143.763 29.116 145.261 29.116V28.716C143.698 28.716 142.409 29.0977 141.414 29.8786L141.66 30.1934ZM145.261 29.116C146.719 29.116 147.862 29.4979 148.713 30.2425L148.977 29.9415C148.036 29.1181 146.79 28.716 145.261 28.716V29.116ZM148.717 30.2454C149.583 30.9702 150.037 31.9501 150.073 33.2057L150.473 33.1943C150.434 31.8366 149.936 30.7444 148.973 29.9386L148.717 30.2454ZM150.273 33H147.753V33.4H150.273V33ZM147.953 33.1892C147.913 32.4542 147.652 31.8588 147.157 31.4255L146.893 31.7265C147.294 32.0772 147.518 32.5645 147.553 33.2108L147.953 33.1892ZM147.16 31.4286C146.665 30.9752 145.996 30.76 145.177 30.76V31.16C145.926 31.16 146.488 31.3555 146.89 31.7234L147.16 31.4286ZM145.177 30.76C144.33 30.76 143.645 30.9426 143.149 31.3352L143.397 31.6488C143.797 31.3321 144.382 31.16 145.177 31.16V30.76ZM143.153 31.332C142.647 31.7112 142.401 32.26 142.401 32.948H142.801C142.801 32.3667 143.003 31.9448 143.393 31.652L143.153 31.332ZM142.401 32.948C142.401 33.4611 142.592 33.8991 142.969 34.2494C143.339 34.5939 143.879 34.8457 144.568 35.018L144.665 34.63C144.011 34.4663 143.543 34.2374 143.241 33.9566C142.946 33.6816 142.801 33.3496 142.801 32.948H142.401ZM144.569 35.0183L146.977 35.6063L147.072 35.2177L144.664 34.6297L144.569 35.0183ZM146.979 35.6067C148.155 35.8822 148.99 36.2989 149.513 36.8391L149.801 36.5609C149.203 35.9438 148.284 35.5018 147.071 35.2173L146.979 35.6067ZM149.513 36.8391C150.029 37.3716 150.297 38.1102 150.297 39.08H150.697C150.697 38.0338 150.405 37.1857 149.801 36.5609L149.513 36.8391ZM150.297 39.08C150.297 40.3069 149.821 41.2844 148.862 42.0301L149.108 42.3459C150.165 41.5236 150.697 40.4291 150.697 39.08H150.297ZM148.864 42.0287C147.9 42.7607 146.621 43.136 145.009 43.136V43.536C146.682 43.536 148.054 43.146 149.106 42.3473L148.864 42.0287ZM145.009 43.136C143.436 43.136 142.207 42.7522 141.3 42.0056L141.046 42.3144C142.043 43.1358 143.371 43.536 145.009 43.536V43.136ZM141.3 42.0056C140.397 41.2621 139.945 40.275 139.945 39.024H139.545C139.545 40.3864 140.045 41.4899 141.046 42.3144L141.3 42.0056Z" fill="white" mask="url(#path-3-outside-1_2207_633)"/>
<defs>
<linearGradient id="paint0_linear_2207_633" x1="164.109" y1="14.4839" x2="162.203" y2="26.3316" gradientUnits="userSpaceOnUse">
<stop offset="0.07" stop-color="#21D789"/>
<stop offset="1" stop-color="#28B29A"/>
</linearGradient>
<linearGradient id="paint1_linear_2207_633" x1="171.98" y1="28.6528" x2="160.637" y2="23.9212" gradientUnits="userSpaceOnUse">
<stop offset="0.07" stop-color="#21D789"/>
<stop offset="1" stop-color="#28B29A"/>
</linearGradient>
</defs>
</svg>
